<svg xmlns="http://www.w3.org/2000/svg" xmlns:se="http://svg-edit.googlecode.com" xmlns:xlink="http://www.w3.org/1999/xlink" xmlns:dc="http://purl.org/dc/elements/1.1/" xmlns:cc="http://creativecommons.org/ns#" xmlns:rdf="http://www.w3.org/1999/02/22-rdf-syntax-ns#" xmlns:inkscape="http://www.inkscape.org/namespaces/inkscape"
	width="357" height="367" style="">
    <title>my vector image</title>
	<!-- Created with Vector Paint - http://www.vectorpaint.yaks.com/ https://chrome.google.com/webstore/detail/hnbpdiengicdefcjecjbnjnoifekhgdo -->
	<rect id="backgroundrect" width="100%" height="100%" x="0" y="0" fill="none" stroke="none" style="" class=""/>
	<g class="currentLayer" style="">
	<title>Layer 1</title>
	<path fill="none" fill-opacity="1" stroke="#222222" stroke-opacity="1" stroke-width="3" stroke-dasharray="none" stroke-linejoin="round" stroke-linecap="butt" stroke-dashoffset="" fill-rule="nonzero" opacity="1" marker-start="" marker-mid="" marker-end="" d="M56.99999952316284,213.3211394548416 C56.99999952316284,133.4868853111952 123.67955753421256,68.82113945484161 205.99999952316284,68.82113945484161 C288.3204415121131,68.82113945484161 354.99999952316284,133.4868853111952 354.99999952316284,213.3211394548416 C354.99999952316284,293.155393598488 288.3204415121131,357.8211394548416 205.99999952316284,357.8211394548416 C123.67955753421256,357.8211394548416 56.99999952316284,293.155393598488 56.99999952316284,213.3211394548416 z" id="svg_1" class=""/>
	<path fill="none" fill-opacity="1" stroke="#222222" stroke-opacity="1" stroke-width="2" stroke-dasharray="none" stroke-linejoin="round" stroke-linecap="butt" stroke-dashoffset="" fill-rule="nonzero" opacity="1" marker-start="" marker-mid="" marker-end="" d="M169.99999237060547,160.79674816131592 C169.99999237060547,140.35475921103966 186.11048960817453,123.79674816131592 205.99999237060547,123.79674816131592 C225.8894951330364,123.79674816131592 241.99999237060547,140.35475921103966 241.99999237060547,160.79674816131592 C241.99999237060547,181.23873711159217 225.8894951330364,197.79674816131592 205.99999237060547,197.79674816131592 C186.11048960817453,197.79674816131592 169.99999237060547,181.23873711159217 169.99999237060547,160.79674816131592 z" id="svg_3" class=""/>
	<path fill="none" fill-opacity="1" stroke="#222222" stroke-opacity="1" stroke-width="2" stroke-dasharray="none" stroke-linejoin="round" stroke-linecap="butt" stroke-dashoffset="" fill-rule="nonzero" opacity="1" marker-start="" marker-mid="" marker-end="" d="M145.49999248981476,261.16666746139526 C145.49999248981476,229.3987116602903 172.57457812517387,203.66666746139526 205.99999248981476,203.66666746139526 C239.42540685445564,203.66666746139526 266.49999248981476,229.3987116602903 266.49999248981476,261.16666746139526 C266.49999248981476,292.9346232625002 239.42540685445564,318.66666746139526 205.99999248981476,318.66666746139526 C172.57457812517387,318.66666746139526 145.49999248981476,292.9346232625002 145.49999248981476,261.16666746139526 z" id="svg_5" class=""/></g>
</svg>